<svg width="32" height="32" viewBox="0 0 32 32" fill="none" xmlns="http://www.w3.org/2000/svg">
<path d="M29.8794 19.2792C29.1625 18.6212 28.2688 18.0155 27.235 17.4848C26.2706 22.8082 21.5931 26.8587 15.985 26.8587C10.3819 26.8587 5.7075 22.8151 4.7375 17.4985C3.715 18.0268 2.83125 18.6268 2.12063 19.2792C0.733125 20.5535 0 22.0298 0 23.5498C0 25.9299 1.75062 28.1142 4.93 29.7003C7.9025 31.1829 11.8337 32 16 32C20.1656 32 24.0975 31.1829 27.07 29.7004C30.2487 28.1142 32 25.93 32 23.5499C32 22.0298 31.2663 20.5535 29.8794 19.2792Z" fill="#37B24D"/>
<path d="M15.985 24.9875C21.2546 24.9875 25.5419 20.7091 25.5419 15.4502C25.5419 8.71131 16.9787 0.897812 16.6141 0.568438L15.985 0L15.3559 0.568438C14.9912 0.89775 6.42812 8.71125 6.42812 15.4501C6.42812 20.709 10.7153 24.9875 15.985 24.9875ZM15.5429 18.5374C17.374 18.5374 18.8636 17.0508 18.8636 15.2235H20.7386C20.7386 18.0826 18.4079 20.4086 15.5429 20.4086V18.5374Z" fill="#37B24D"/>
</svg>
