<svg width="48" height="48" viewBox="0 0 48 48" fill="none" xmlns="http://www.w3.org/2000/svg">
<circle cx="24" cy="24" r="24" fill="#FFF5F5"/>
<g clip-path="url(#clip0)">
<path d="M30.8529 9.09815H10.7208C9.77043 9.09815 9 9.86858 9 10.8189C9 11.7693 9.77043 12.5397 10.7208 12.5397L14.3683 12.5438C14.9005 12.5438 15.332 12.9752 15.332 13.5074C15.332 14.0396 14.9005 14.471 14.3683 14.471H11.3144V21.7794H10.7208C9.77043 21.7794 9 22.5497 9 23.5001C9 24.4505 9.77043 25.2209 10.7208 25.2209L14.3683 25.2259C14.9005 25.2259 15.332 25.6573 15.332 26.1895C15.332 26.7217 14.9005 27.1531 14.3683 27.1531H11.3144V34.4604H10.7208C9.77043 34.4604 9 35.2308 9 36.1811C9 37.1315 9.77043 37.9019 10.7208 37.9019H25.8787C23.9983 36.3648 22.7957 34.028 22.7957 31.4156C22.7957 29.4874 23.9948 26.9328 26.4615 23.6055C28.1633 21.31 29.8418 19.5039 29.9125 19.4282L30.2593 19.0562V12.5397H30.8529C31.8033 12.5397 32.5737 11.7693 32.5737 10.8189C32.5736 9.86858 31.8032 9.09815 30.8529 9.09815Z" fill="#EE6161"/>
<path d="M34.8981 25.0093C33.3912 22.9768 31.8629 21.3324 31.8477 21.3161C31.7698 21.2325 31.6606 21.1851 31.5464 21.1851C31.4321 21.1851 31.323 21.2325 31.2451 21.3161C31.2298 21.3324 29.7014 22.9768 28.1947 25.0093C26.1366 27.7855 25.0931 29.9405 25.0931 31.4146C25.0931 34.9731 27.9881 37.8683 31.5465 37.8683C35.105 37.8683 38.0001 34.9732 38.0001 31.4146C37.9999 29.9404 36.9562 27.7855 34.8981 25.0093ZM32.1909 35.7798C31.8526 35.8598 31.504 35.9002 31.1545 35.9002C28.6711 35.9002 26.6505 33.8798 26.6505 31.3963C26.6505 31.0538 26.7559 30.4336 27.258 29.4227C27.3085 29.321 27.4248 29.2706 27.5335 29.303C27.6421 29.3353 27.7119 29.4413 27.6985 29.554C27.6869 29.6513 27.6811 29.7428 27.6811 29.8262C27.6811 32.4882 29.5744 34.8005 32.1829 35.3242C32.2904 35.3457 32.3682 35.4393 32.3702 35.5489C32.3722 35.6586 32.2975 35.7545 32.1909 35.7798Z" fill="#EE6161"/>
</g>
<defs>
<clipPath id="clip0">
<rect width="29" height="29" fill="white" transform="translate(9 9)"/>
</clipPath>
</defs>
</svg>
