<svg width="82" height="82" viewBox="0 0 82 82" fill="none" xmlns="http://www.w3.org/2000/svg">
<circle cx="41" cy="41" r="41" fill="#ECF4FF"/>
<path d="M56.1492 66.1489H28.7685C27.8811 66.1489 27.1617 65.3211 27.1617 64.2998V19.5355C27.1617 18.5143 27.8811 17.6865 28.7685 17.6865H56.1492C57.0366 17.6865 57.756 18.5143 57.756 19.5355V64.2999C57.7559 65.3211 57.0366 66.1489 56.1492 66.1489Z" fill="#3C87D0"/>
<path d="M52.9875 69.7875H25.6067C24.7194 69.7875 24 68.9597 24 67.9385V23.1741C24 22.1529 24.7193 21.325 25.6067 21.325H52.9875C53.8748 21.325 54.5942 22.1528 54.5942 23.1741V67.9385C54.5942 68.9597 53.8749 69.7875 52.9875 69.7875Z" fill="#C8EFFE"/>
<path d="M52.9875 21.3251H49.6296C50.517 21.3251 51.2364 22.1529 51.2364 23.1742V67.9386C51.2364 68.9597 50.5171 69.7876 49.6296 69.7876H52.9875C53.8748 69.7876 54.5942 68.9598 54.5942 67.9386V23.1741C54.5942 22.1529 53.8749 21.3251 52.9875 21.3251Z" fill="#B3DAFE"/>
<path d="M50.6009 29.7216H41.7682C41.4172 29.7216 41.1327 29.3941 41.1327 28.9903C41.1327 28.5864 41.4172 28.2589 41.7682 28.2589H50.6009C50.9518 28.2589 51.2364 28.5864 51.2364 28.9903C51.2363 29.3942 50.9518 29.7216 50.6009 29.7216Z" fill="#3E5959"/>
<path d="M50.6009 33.1428H41.7682C41.4172 33.1428 41.1327 32.8153 41.1327 32.4115C41.1327 32.0076 41.4172 31.6801 41.7682 31.6801H50.6009C50.9518 31.6801 51.2364 32.0076 51.2364 32.4115C51.2363 32.8153 50.9518 33.1428 50.6009 33.1428Z" fill="#3E5959"/>
<path d="M50.6009 36.5638H41.7682C41.4172 36.5638 41.1327 36.2364 41.1327 35.8325C41.1327 35.4286 41.4172 35.1011 41.7682 35.1011H50.6009C50.9518 35.1011 51.2364 35.4286 51.2364 35.8325C51.2363 36.2365 50.9518 36.5638 50.6009 36.5638Z" fill="#3E5959"/>
<path d="M50.6009 55.6568H42.3899C42.0389 55.6568 41.7544 55.3294 41.7544 54.9255C41.7544 54.5216 42.0389 54.1942 42.3899 54.1942H50.6009C50.9518 54.1942 51.2364 54.5216 51.2364 54.9255C51.2363 55.3294 50.9518 55.6568 50.6009 55.6568Z" fill="#3E5959"/>
<path d="M36.8262 48.5206H27.9934C27.6425 48.5206 27.3579 48.1932 27.3579 47.7893C27.3579 47.3854 27.6425 47.0579 27.9934 47.0579H36.8262C37.1772 47.0579 37.4617 47.3854 37.4617 47.7893C37.4617 48.1932 37.1772 48.5206 36.8262 48.5206Z" fill="#3E5959"/>
<path d="M36.8262 45.0994H27.9934C27.6425 45.0994 27.3579 44.772 27.3579 44.3681C27.3579 43.9642 27.6425 43.6367 27.9934 43.6367H36.8262C37.1772 43.6367 37.4617 43.9642 37.4617 44.3681C37.4617 44.7721 37.1772 45.0994 36.8262 45.0994Z" fill="#3E5959"/>
<path d="M33.2611 25.3071V32.1003H39.164C39.164 28.3486 36.5212 25.3071 33.2611 25.3071Z" fill="#EE6161"/>
<path d="M33.2612 25.3071C30.0011 25.3071 27.3583 28.3485 27.3583 32.1003C27.3583 35.852 30.0011 38.8934 33.2612 38.8934C36.5212 38.8934 39.164 35.852 39.164 32.1003H33.2612V25.3071Z" fill="#FEA95C"/>
<path d="M50.8127 50.0766H40.2009C39.967 50.0766 39.7773 49.8584 39.7773 49.5891V42.5684C39.7773 42.2991 39.967 42.0809 40.2009 42.0809H50.8127C51.0466 42.0809 51.2363 42.2991 51.2363 42.5684V49.5891C51.2363 49.8584 51.0466 50.0766 50.8127 50.0766Z" fill="#EE6161"/>
<path d="M29.6379 64.5583H27.7816C27.5476 64.5583 27.3579 64.34 27.3579 64.0707V53.4058C27.3579 53.1365 27.5476 52.9183 27.7816 52.9183H29.6379C29.8719 52.9183 30.0616 53.1365 30.0616 53.4058V64.0707C30.0616 64.34 29.8719 64.5583 29.6379 64.5583Z" fill="#FE7701"/>
<path d="M34.6817 64.5583H32.8253C32.5913 64.5583 32.4017 64.34 32.4017 64.0707V56.2041C32.4017 55.9349 32.5913 55.7166 32.8253 55.7166H34.6817C34.9156 55.7166 35.1053 55.9349 35.1053 56.2041V64.0707C35.1053 64.34 34.9156 64.5583 34.6817 64.5583Z" fill="#FE9738"/>
<path d="M39.7255 64.5583H37.8691C37.6352 64.5583 37.4455 64.34 37.4455 64.0708V59.6904C37.4455 59.4212 37.6352 59.2029 37.8691 59.2029H39.7255C39.9594 59.2029 40.1491 59.4212 40.1491 59.6904V64.0708C40.1491 64.34 39.9594 64.5583 39.7255 64.5583Z" fill="#FEA95C"/>
<path d="M50.6009 59.2501H42.3899C42.0389 59.2501 41.7544 58.9226 41.7544 58.5187C41.7544 58.1148 42.0389 57.7874 42.3899 57.7874H50.6009C50.9518 57.7874 51.2364 58.1148 51.2364 58.5187C51.2363 58.9227 50.9518 59.2501 50.6009 59.2501Z" fill="#3E5959"/>
<path d="M50.6009 62.8434H42.3899C42.0389 62.8434 41.7544 62.516 41.7544 62.1121C41.7544 61.7082 42.0389 61.3807 42.3899 61.3807H50.6009C50.9518 61.3807 51.2364 61.7082 51.2364 62.1121C51.2363 62.516 50.9518 62.8434 50.6009 62.8434Z" fill="#3E5959"/>
</svg>
